<?xml version="1.0" standalone="no"?><!DOCTYPE svg PUBLIC "-//W3C//DTD SVG 1.1//EN" "http://www.w3.org/Graphics/SVG/1.1/DTD/svg11.dtd"><svg t="1726467838174" class="icon" viewBox="0 0 1024 1024" version="1.1" xmlns="http://www.w3.org/2000/svg" p-id="4281" xmlns:xlink="http://www.w3.org/1999/xlink" width="200" height="200"><path d="M512 318.72a35.84 35.84 0 0 0-26.453333 11.52L264.533333 565.76a35.84 35.84 0 1 0 52.48 49.066667L512 407.466667l194.56 207.36a35.84 35.84 0 0 0 52.48-49.066667L537.6 330.24a35.84 35.84 0 0 0-25.6-11.52zM512 0a512 512 0 1 0 512 512A512 512 0 0 0 512 0z m0 72.106667a439.466667 439.466667 0 0 1 170.666667 844.373333A439.466667 439.466667 0 0 1 200.533333 200.533333a438.613333 438.613333 0 0 1 311.04-128z" fill="#5E5C5C" p-id="4282"></path></svg>