<?xml version="1.0" standalone="no"?><!DOCTYPE svg PUBLIC "-//W3C//DTD SVG 1.1//EN" "http://www.w3.org/Graphics/SVG/1.1/DTD/svg11.dtd"><svg t="1726459400725" class="icon" viewBox="0 0 1024 1024" version="1.1" xmlns="http://www.w3.org/2000/svg" p-id="2449" xmlns:xlink="http://www.w3.org/1999/xlink" width="200" height="200"><path d="M672.31 538.7c80.05-50.94 131-141.91 131-243.8 0-160.11-131-291.1-291.1-291.1-160.1 0-291.1 131-291.1 291.1 0 101.88 50.94 192.85 131 243.8C148.32 604.2 2.78 797.05 2.78 1022.66h72.77c0-240.16 196.5-436.65 436.65-436.65 240.16 0 436.66 196.49 436.66 436.65h72.77c0-225.61-145.56-418.46-349.32-483.96zM512.2 513.23c-120.07 0-218.32-98.24-218.32-218.32S392.13 76.58 512.2 76.58c120.08 0 218.33 98.25 218.33 218.33 0 120.08-98.25 218.32-218.33 218.32z m0 0" fill="#323333" p-id="2450"></path></svg>